<?xml version="1.0" standalone="no"?>
<!DOCTYPE svg PUBLIC "-//W3C//DTD SVG 20010904//EN"
 "http://www.w3.org/TR/2001/REC-SVG-20010904/DTD/svg10.dtd">
<svg version="1.0" xmlns="http://www.w3.org/2000/svg"
 width="1920.000000pt" height="1920.000000pt" viewBox="0 0 1920.000000 1920.000000"
 preserveAspectRatio="xMidYMid meet">
<metadata>
Created by potrace 1.14, written by Peter Selinger 2001-2017
</metadata>
<g transform="translate(0.000000,1920.000000) scale(0.100000,-0.100000)"
fill="#000000" stroke="none">
<path d="M5926 12734 c-6 -16 -8 -16 -16 -4 -8 12 -10 11 -11 -5 0 -15 -2 -16
-7 -5 -9 20 -52 22 -44 2 4 -11 1 -13 -9 -7 -11 7 -11 5 1 -10 9 -11 10 -16 3
-11 -8 4 -13 1 -13 -8 0 -9 4 -16 9 -16 4 0 8 -13 7 -29 -1 -16 -4 -27 -8 -24
-5 2 -8 -4 -8 -14 0 -11 -6 -25 -12 -33 -11 -12 -10 -12 3 -2 16 12 29 7 29
-10 0 -5 -4 -6 -10 -3 -5 3 -10 1 -10 -5 0 -6 -5 -8 -12 -4 -7 4 -8 3 -4 -5 4
-6 11 -9 16 -6 5 3 12 0 16 -6 5 -8 3 -9 -6 -4 -8 5 -11 3 -8 -6 3 -8 1 -23
-5 -34 -9 -18 -9 -19 8 -5 17 14 17 14 7 -7 -16 -29 -15 -36 4 -29 8 3 12 2 9
-4 -3 -6 -12 -10 -18 -10 -7 0 -13 -9 -13 -19 0 -16 3 -17 14 -9 10 9 12 8 10
-2 -5 -22 -22 -38 -33 -32 -5 3 -4 -1 3 -10 9 -11 10 -18 2 -23 -5 -3 -10 -11
-10 -18 0 -6 7 -2 15 9 17 22 20 12 5 -16 -7 -13 -7 -21 2 -26 7 -5 8 -3 3 6
-6 9 -4 11 5 5 11 -7 10 -10 -1 -19 -15 -12 -18 -61 -4 -73 4 -5 5 -2 0 6 -6
10 -4 12 5 6 11 -7 10 -10 -1 -19 -17 -12 -15 -71 1 -92 8 -9 5 -16 -12 -28
-12 -9 -16 -16 -9 -16 8 0 11 -6 7 -16 -3 -8 -2 -12 3 -9 5 3 12 1 16 -5 3 -5
1 -10 -4 -10 -6 0 -11 -9 -11 -20 0 -11 -5 -20 -12 -20 -6 0 -8 -3 -5 -6 4 -4
13 -2 20 4 10 9 14 8 14 -3 0 -8 -4 -15 -8 -15 -4 0 -10 -7 -13 -16 -3 -8 -2
-12 4 -9 6 3 10 1 10 -4 0 -6 -5 -11 -12 -11 -6 0 -3 -7 8 -16 18 -15 18 -15
0 -10 -18 6 -18 5 -2 -19 15 -23 15 -25 -3 -37 -18 -11 -18 -12 2 -28 l21 -17
-22 -14 c-15 -9 -18 -17 -11 -25 7 -8 6 -14 -1 -19 -5 -3 -10 -11 -10 -18 0
-6 6 -2 14 8 8 11 12 25 9 32 -3 7 0 13 5 13 11 0 10 -20 -4 -54 -4 -12 -4
-17 2 -13 6 3 11 -3 11 -14 1 -10 -3 -19 -8 -19 -6 0 -7 5 -4 10 3 6 1 10 -5
10 -11 0 -3 -50 9 -60 9 -7 8 -27 -3 -37 -5 -4 -6 -3 -2 4 3 6 2 14 -3 17 -10
7 -9 -20 2 -30 4 -4 -1 -13 -11 -21 -9 -8 -12 -12 -5 -9 12 7 13 -48 0 -60 -4
-4 -7 -12 -7 -18 0 -5 6 -1 14 9 8 11 12 28 10 39 -2 10 0 16 3 12 10 -10 12
-56 3 -56 -5 0 -11 -7 -14 -16 -3 -8 -2 -12 4 -9 6 3 10 -1 10 -10 0 -9 -4
-14 -9 -11 -12 8 -2 -35 13 -53 9 -12 8 -13 -6 -9 -19 8 -19 -12 1 -36 12 -14
12 -16 -2 -11 -8 4 -18 1 -23 -6 -5 -8 -3 -10 6 -4 8 5 11 3 8 -6 -3 -8 -2
-21 3 -30 4 -8 4 -21 -1 -29 -5 -8 -5 -21 1 -31 7 -13 5 -20 -7 -27 -15 -8
-15 -10 0 -15 12 -5 15 -3 10 6 -4 6 -3 8 1 4 12 -10 15 -38 4 -31 -8 4 -11
-9 -8 -32 0 -4 -5 -10 -11 -14 -8 -5 -7 -9 5 -13 10 -5 14 -3 9 5 -5 7 -3 8 5
4 9 -6 8 -13 -5 -27 -9 -10 -13 -19 -8 -19 5 0 2 -5 -6 -11 -13 -9 -12 -10 2
-5 10 3 20 1 23 -4 4 -6 0 -10 -8 -10 -18 0 -15 -39 4 -51 12 -7 11 -9 -3 -9
-11 0 -15 -6 -11 -20 3 -11 9 -18 12 -15 4 2 8 -3 8 -11 0 -8 -5 -13 -11 -11
-7 3 -11 -8 -10 -29 1 -20 -3 -34 -10 -34 -6 0 -3 -5 6 -10 13 -8 15 -17 8
-40 -7 -23 -5 -32 8 -40 15 -8 15 -9 -2 -10 -15 0 -16 -3 -6 -15 7 -8 9 -23 4
-37 -4 -13 -7 -25 -6 -28 0 -3 -5 -12 -11 -20 -9 -12 -9 -13 3 -2 8 6 17 12
21 12 9 0 5 -27 -6 -37 -4 -4 -5 -2 0 6 5 10 4 12 -4 7 -6 -4 -9 -12 -6 -17 4
-5 1 -9 -6 -9 -6 0 -1 -9 12 -21 13 -11 19 -18 13 -15 -7 3 -15 -1 -18 -10 -3
-8 -2 -12 4 -9 6 3 10 2 10 -4 0 -5 -7 -14 -16 -19 -15 -8 -15 -10 0 -15 11
-5 15 -3 10 5 -4 7 -3 8 5 4 16 -10 -6 -39 -23 -29 -6 3 -6 0 2 -8 6 -7 12
-17 12 -22 0 -4 -6 -5 -12 -1 -9 6 -9 3 0 -9 16 -19 23 -77 9 -77 -4 0 -5 -5
-2 -10 4 -6 12 -8 18 -4 7 3 4 -1 -5 -9 -22 -17 -23 -28 -4 -21 16 6 16 -19 1
-33 -4 -4 -5 -2 0 6 5 10 4 12 -4 7 -6 -4 -9 -12 -6 -17 4 -5 1 -9 -6 -9 -6 0
-1 -9 12 -21 13 -11 18 -18 12 -14 -8 4 -13 -1 -14 -12 0 -10 -2 -26 -4 -36
-2 -9 1 -15 6 -11 5 3 6 10 3 16 -4 7 -2 8 4 4 6 -4 8 -14 5 -23 -5 -12 -3
-14 7 -8 9 5 11 4 6 -4 -4 -6 -12 -8 -18 -5 -7 5 -9 0 -6 -14 4 -14 1 -22 -11
-25 -10 -3 -6 -5 9 -6 l25 -2 -24 -13 c-20 -11 -21 -14 -7 -19 10 -4 15 -3 12
1 -3 5 1 9 9 9 11 0 12 -4 4 -13 -6 -7 -7 -19 -3 -26 6 -10 5 -10 -7 -1 -11 9
-14 7 -14 -13 0 -13 5 -24 11 -24 6 0 11 -7 11 -15 0 -12 -3 -12 -16 -2 -12
10 -13 9 -7 -1 4 -7 3 -19 -3 -26 -8 -9 -7 -13 4 -13 8 0 12 4 9 9 -3 4 0 8 5
8 14 0 14 -13 -1 -28 -6 -6 -12 -21 -12 -34 -1 -13 -5 -30 -10 -38 -7 -12 -6
-13 5 -2 7 6 18 12 24 12 5 -1 0 -9 -12 -19 -19 -16 -20 -20 -7 -25 8 -3 12
-2 9 4 -3 6 -2 10 4 10 5 0 9 -9 8 -20 -1 -11 -6 -19 -12 -16 -17 6 -12 -83 5
-94 13 -8 12 -10 -2 -10 -10 0 -18 -4 -18 -10 0 -5 8 -7 18 -3 14 5 15 3 5 -8
-15 -15 -18 -33 -5 -25 5 3 9 -1 9 -9 0 -8 -4 -12 -9 -9 -4 3 -8 -2 -8 -11 0
-10 5 -13 13 -9 6 4 3 -3 -8 -16 l-20 -23 25 12 c25 12 25 12 -2 -13 -27 -24
-27 -25 -7 -31 12 -4 17 -10 12 -14 -5 -3 -13 -15 -17 -25 -7 -20 -7 -20 16 0
13 11 18 12 10 3 -6 -9 -9 -19 -5 -22 3 -4 -1 -7 -10 -7 -10 0 -17 -4 -17 -10
0 -5 6 -7 14 -4 16 6 16 -19 1 -33 -4 -4 -5 -2 -1 4 5 9 2 11 -10 6 -16 -6
-15 -8 4 -16 20 -9 21 -11 4 -24 -9 -8 -11 -11 -3 -7 10 5 11 1 6 -15 -4 -13
-2 -21 5 -21 7 0 5 -6 -4 -15 -15 -15 -12 -50 3 -40 4 2 8 -2 8 -10 0 -8 -4
-12 -9 -9 -4 3 -8 0 -8 -5 0 -6 6 -11 13 -11 9 0 8 -3 -2 -9 -11 -7 -11 -9 0
-14 10 -4 9 -6 -3 -6 -10 -1 -18 -6 -18 -12 0 -5 5 -7 10 -4 6 3 10 2 10 -4 0
-6 8 -8 18 -4 14 5 13 3 -3 -10 -17 -15 -18 -18 -5 -27 12 -9 10 -10 -10 -5
-21 5 -23 4 -10 -7 8 -7 16 -20 18 -28 3 -10 -3 -9 -20 5 -23 20 -23 20 -8 0
8 -11 20 -23 25 -27 6 -5 6 -8 -1 -8 -17 0 -25 -28 -12 -36 6 -4 8 -3 4 4 -3
6 -2 13 3 16 5 4 8 -2 7 -11 -2 -9 -8 -19 -14 -21 -7 -2 -12 -8 -12 -13 0 -4
8 -6 18 -3 12 4 9 -1 -8 -17 -17 -15 -19 -20 -7 -16 9 4 17 2 17 -3 0 -6 -4
-10 -10 -10 -5 0 -10 -5 -10 -11 0 -5 4 -8 9 -4 5 3 12 1 16 -5 3 -5 1 -10 -4
-10 -6 0 -11 -7 -11 -16 0 -14 2 -15 18 -3 15 13 16 12 4 -3 -8 -10 -10 -23
-6 -30 6 -10 5 -11 -7 -1 -13 10 -15 8 -13 -15 1 -15 2 -40 3 -57 1 -23 3 -27
11 -15 5 8 10 10 10 4 0 -6 -7 -17 -15 -24 -8 -7 -13 -16 -10 -20 3 -5 -1 -11
-7 -14 -7 -3 -3 -3 9 -1 12 3 24 1 28 -5 4 -6 3 -10 -2 -9 -20 3 -34 -2 -28
-11 4 -6 10 -8 14 -6 4 3 8 -1 8 -9 0 -8 -4 -12 -9 -9 -12 8 -10 -20 3 -33 8
-8 7 -13 -2 -18 -8 -5 -10 -4 -5 3 5 8 1 10 -10 5 -16 -6 -15 -8 4 -16 25 -11
24 -43 -2 -63 -16 -11 -16 -13 3 -19 19 -6 19 -8 6 -21 -14 -14 -10 -48 4 -39
4 2 8 -2 8 -10 0 -8 -4 -12 -8 -10 -4 3 -9 -2 -13 -10 -3 -8 0 -17 6 -21 7 -5
8 -2 3 7 -5 8 -4 10 0 6 14 -13 14 -36 0 -31 -7 3 -16 0 -20 -6 -3 -6 -3 -10
2 -9 20 3 34 -2 28 -11 -4 -6 -11 -7 -17 -4 -7 5 -8 2 -3 -6 4 -7 2 -16 -5
-20 -9 -6 -7 -10 9 -15 l21 -6 -21 -18 c-17 -14 -19 -18 -6 -18 9 0 14 4 11 9
-3 4 0 8 5 8 15 0 14 -6 -5 -34 -11 -18 -12 -26 -3 -32 8 -5 9 -3 4 6 -5 9 -4
11 4 6 6 -4 9 -12 6 -17 -4 -5 0 -9 7 -9 9 0 9 -3 -2 -10 -8 -5 -11 -10 -6
-10 4 0 -2 -8 -14 -18 -18 -14 -19 -19 -7 -19 9 0 13 5 10 10 -3 6 -1 7 5 3 9
-5 8 -12 -1 -28 -9 -16 -9 -22 1 -25 6 -3 12 -9 12 -14 0 -6 -4 -7 -10 -4 -5
3 -10 -1 -10 -10 0 -9 4 -13 10 -10 6 3 7 -1 4 -9 -3 -9 -11 -13 -18 -10 -6 3
-2 -2 8 -10 18 -15 18 -16 2 -16 -9 0 -14 -5 -11 -10 4 -6 11 -8 16 -4 6 3 5
-4 -3 -16 -10 -18 -10 -24 -1 -27 10 -3 9 -8 -3 -20 -13 -13 -13 -18 -1 -32
19 -21 18 -54 0 -47 -9 4 -11 1 -7 -5 4 -6 1 -15 -6 -19 -8 -5 -7 -9 5 -13 9
-4 13 -3 10 2 -3 5 -1 12 4 15 5 4 8 -2 6 -11 -2 -10 -4 -22 -4 -26 -1 -5 -7
-5 -13 -1 -7 4 -4 -3 6 -15 15 -16 16 -20 5 -16 -12 4 -15 0 -13 -17 1 -13 3
-27 3 -31 1 -5 7 -5 14 -1 8 5 8 3 -2 -9 -7 -9 -18 -14 -25 -10 -7 4 -7 1 1
-8 9 -11 9 -19 2 -26 -6 -6 -5 -10 5 -10 8 0 13 4 10 9 -3 4 -1 8 4 8 5 0 9
-14 8 -30 0 -21 -5 -29 -14 -25 -8 3 -10 0 -6 -6 4 -6 1 -15 -6 -19 -8 -5 -7
-9 5 -13 9 -4 13 -3 10 2 -3 5 -2 12 3 15 4 2 8 -8 7 -24 0 -18 -4 -25 -10
-20 -6 5 -10 -1 -10 -16 0 -13 5 -24 12 -24 13 0 12 -25 -2 -37 -4 -4 -5 -3
-1 4 3 6 2 14 -3 17 -5 4 -8 -1 -7 -10 1 -8 8 -19 15 -24 10 -5 10 -9 2 -11
-7 -3 -13 -19 -15 -36 -1 -18 -5 -36 -9 -39 -4 -4 -7 -12 -7 -18 0 -6 5 -3 11
7 12 21 26 22 26 2 0 -8 -4 -12 -9 -9 -13 8 -9 -20 5 -35 10 -11 9 -13 -4 -8
-12 4 -15 0 -11 -20 3 -18 7 -21 13 -12 6 10 8 7 6 -9 -1 -13 -6 -21 -13 -18
-17 6 -11 -24 7 -35 12 -7 11 -9 -3 -9 -9 0 -20 -5 -24 -12 -4 -6 -3 -8 3 -5
14 9 14 -46 -1 -56 -6 -5 -1 -5 12 -2 l24 7 -18 -29 c-13 -19 -14 -24 -4 -16
13 9 15 7 15 -18 1 -20 -3 -28 -12 -25 -7 3 -10 -1 -6 -10 3 -8 -1 -14 -8 -14
-8 -1 -3 -7 10 -14 13 -7 19 -15 12 -17 -6 -2 -13 -14 -16 -27 -2 -12 0 -20 4
-17 5 2 14 -2 21 -10 11 -13 10 -14 -4 -9 -12 4 -16 0 -16 -15 0 -12 -5 -21
-12 -21 -6 0 -8 -3 -5 -6 4 -4 13 -2 20 4 10 9 14 8 14 -3 0 -8 -5 -15 -10
-15 -5 0 -6 -12 -3 -26 4 -15 3 -23 -3 -20 -11 7 -2 -33 11 -50 10 -14 -15
-37 -28 -26 -4 4 -2 -1 5 -10 7 -9 10 -22 6 -27 -4 -7 1 -8 12 -4 15 5 16 3 6
-8 -7 -7 -13 -17 -13 -22 0 -4 6 -5 13 -2 6 4 5 1 -3 -7 -8 -7 -14 -20 -14
-28 1 -8 2 -21 3 -29 1 -11 4 -11 19 0 16 13 16 12 1 -6 -24 -29 -30 -65 -12
-65 8 0 11 -5 8 -10 -4 -6 -11 -7 -17 -4 -5 4 -4 -4 3 -17 12 -23 11 -23 -7
-9 -17 14 -18 14 -6 -2 8 -10 10 -23 6 -30 -6 -10 -5 -11 7 -1 12 10 15 8 15
-6 0 -11 -6 -17 -13 -14 -9 4 -11 0 -7 -11 3 -9 11 -16 18 -16 6 0 5 -4 -4 -9
-8 -6 -19 -7 -25 -4 -5 4 -6 2 -2 -3 5 -5 13 -9 19 -9 18 0 17 -34 0 -45 -10
-5 -12 -10 -5 -10 7 0 10 -7 7 -15 -4 -8 -1 -22 6 -30 10 -12 9 -16 -5 -21
-13 -5 -14 -9 -3 -15 7 -4 13 -23 14 -41 2 -62 2 -62 20 -47 13 10 17 10 25
-2 6 -9 12 -10 17 -4 4 6 14 10 22 10 8 0 18 -4 22 -10 5 -6 8 -4 8 4 0 11 4
10 16 -5 8 -10 13 -14 10 -8 -3 7 1 14 9 18 8 3 15 1 15 -4 0 -12 22 -9 32 5
5 6 8 5 8 -4 0 -11 3 -11 16 0 13 10 17 10 25 -2 8 -12 10 -12 19 1 9 13 11
13 20 0 9 -13 10 -13 10 0 0 13 1 13 10 0 5 -8 10 -10 10 -4 0 6 7 11 15 11 8
0 15 -5 15 -11 0 -6 5 -4 10 4 9 13 10 13 10 0 0 -13 1 -13 10 0 9 13 10 13
10 0 0 -13 1 -13 10 0 8 12 10 12 10 1 0 -11 3 -11 15 -1 12 10 15 10 15 0 0
-10 3 -10 15 0 12 10 15 10 15 -1 0 -11 2 -11 10 1 8 12 10 12 10 1 0 -11 3
-11 15 -1 12 10 15 10 15 0 0 -10 3 -10 15 0 12 10 15 10 15 0 0 -10 3 -10 15
0 11 9 15 9 15 1 0 -7 5 -9 12 -5 17 10 68 11 68 0 0 -5 7 -3 15 4 12 10 15
10 15 0 0 -10 3 -10 15 0 8 7 15 8 15 3 0 -11 29 -11 47 0 6 4 14 3 18 -3 4
-7 13 -6 27 1 16 8 19 8 13 -1 -6 -9 -2 -9 14 -1 16 9 21 9 21 0 0 -8 4 -8 15
1 12 10 15 10 15 0 0 -10 3 -10 15 0 12 10 15 10 15 0 0 -10 3 -10 15 0 12 10
15 10 15 -1 0 -11 2 -11 10 1 8 12 10 12 10 1 0 -11 3 -11 15 -1 12 10 15 10
15 0 0 -10 3 -10 15 0 12 10 15 10 15 -1 0 -11 2 -11 10 1 9 13 10 13 10 0 0
-13 1 -13 10 0 9 13 10 13 10 0 0 -13 1 -13 10 0 9 13 10 13 10 0 0 -13 1 -13
10 0 9 13 10 13 10 0 0 -13 1 -13 10 0 6 10 10 11 10 3 0 -9 7 -10 27 -2 20 7
28 6 35 -3 6 -10 8 -10 8 2 0 13 1 13 10 0 9 -13 11 -13 20 0 9 13 11 13 20 0
9 -13 10 -13 10 0 0 13 1 13 10 0 9 -13 10 -13 10 0 0 13 1 13 10 0 9 -13 10
-13 10 0 0 13 1 13 10 0 9 -13 10 -13 10 0 0 13 1 13 10 0 9 -13 10 -13 10 0
0 12 2 13 9 1 7 -11 9 -11 14 0 5 12 6 12 6 0 1 -11 4 -11 16 -1 9 7 15 8 15
2 0 -12 33 -10 42 3 5 6 8 5 8 -4 0 -11 3 -11 15 -1 8 7 15 8 15 3 0 -5 17 -8
38 -7 20 1 37 3 37 4 0 1 15 2 33 3 17 1 32 -2 32 -7 0 -5 7 -3 15 4 12 10 15
10 15 0 0 -10 3 -10 15 0 12 10 15 10 15 0 0 -10 3 -10 15 0 11 9 15 9 15 1 0
-7 5 -9 12 -5 17 11 58 11 58 1 0 -4 9 -3 20 3 14 8 20 8 20 0 0 -8 6 -8 20 0
15 8 20 8 20 -1 0 -8 4 -8 15 1 12 10 15 10 15 0 0 -9 4 -9 13 -2 8 7 18 7 27
2 9 -6 17 -5 22 3 6 9 10 9 17 -2 7 -11 9 -11 14 0 5 12 6 12 6 0 1 -11 4 -11
16 -1 11 9 15 9 15 1 0 -7 5 -9 12 -5 20 12 52 12 61 0 5 -8 10 -6 17 4 6 10
13 11 18 5 8 -12 27 -13 37 -3 4 4 16 3 26 -2 12 -7 19 -6 22 3 4 9 8 8 16 -3
10 -13 11 -13 11 0 0 9 3 11 8 5 8 -11 67 -13 78 -2 4 3 15 2 25 -3 12 -7 19
-6 22 3 4 9 8 8 16 -3 10 -13 11 -13 11 0 0 13 1 13 11 0 8 -11 12 -12 15 -3
4 8 13 9 30 3 20 -8 24 -6 25 8 0 14 2 15 7 2 7 -16 39 -20 59 -7 6 4 14 3 17
-2 7 -10 25 -9 44 2 7 5 12 3 12 -3 0 -8 6 -8 20 0 15 8 20 8 20 -1 0 -8 5 -7
17 2 15 12 16 12 8 -1 -7 -13 -6 -13 7 -2 13 10 17 10 20 0 4 -10 8 -10 21 1
10 7 17 9 17 4 0 -5 7 -10 15 -10 8 0 12 4 9 9 -3 4 0 8 5 8 6 0 11 -5 11 -11
0 -8 5 -8 15 1 11 9 15 9 15 1 0 -7 5 -9 12 -5 19 12 48 12 48 1 0 -5 7 -4 15
3 12 10 15 10 15 0 0 -10 3 -10 15 0 12 10 15 10 15 0 0 -10 3 -10 15 0 12 10
15 10 15 -1 0 -11 2 -11 10 1 5 8 10 10 10 3 0 -6 8 -10 18 -8 9 2 21 4 25 4
5 1 5 7 2 14 -4 6 -1 5 7 -3 13 -16 65 -19 86 -6 7 4 12 2 12 -4 0 -6 5 -8 12
-4 19 12 48 12 48 1 0 -5 7 -4 15 3 12 10 15 10 15 0 0 -10 3 -10 15 0 12 10
15 10 15 0 0 -10 3 -10 15 0 12 10 15 10 15 -1 0 -11 2 -11 10 1 5 8 10 10 10
3 0 -6 8 -10 18 -8 9 2 21 4 25 4 5 1 5 7 2 14 -4 6 -1 5 7 -3 13 -15 72 -20
84 -7 4 3 15 2 25 -3 12 -7 19 -6 22 3 4 9 8 9 15 -2 6 -8 15 -10 23 -5 21 13
39 13 39 1 0 -7 5 -5 10 3 5 8 10 10 10 4 0 -13 42 -13 52 1 5 6 8 5 8 -4 0
-11 3 -11 16 0 10 8 18 9 22 2 7 -10 63 -10 81 2 6 3 11 1 11 -6 0 -8 5 -7 17
2 15 12 16 12 8 -1 -7 -13 -6 -13 7 -2 13 10 17 10 20 0 4 -10 8 -10 21 1 13
10 17 10 17 1 0 -10 3 -10 15 0 11 9 15 9 15 1 0 -8 6 -9 18 -2 11 6 24 6 35
0 11 -7 17 -6 17 1 0 7 6 8 18 1 13 -7 23 -6 30 1 9 9 12 8 12 -2 0 -13 2 -13
10 0 9 13 10 13 10 0 0 -13 1 -13 10 0 5 8 10 10 10 4 0 -13 42 -13 52 1 5 6
8 5 8 -4 0 -11 3 -11 16 0 13 10 17 10 26 -2 7 -10 11 -11 14 -2 4 8 13 9 29
3 12 -5 25 -7 27 -5 8 8 88 13 88 6 0 -10 51 -8 68 3 7 4 12 1 12 -6 0 -9 3
-9 10 2 6 9 10 10 10 3 0 -11 21 -11 78 2 12 3 22 2 22 -3 0 -12 63 -9 72 3 5
6 8 5 8 -4 0 -11 3 -11 16 0 11 9 18 9 22 2 5 -7 21 -9 49 -4 22 5 48 4 57 -1
10 -6 16 -5 16 2 0 7 6 8 18 1 11 -6 24 -6 36 1 14 8 21 7 27 -3 7 -12 9 -11
9 1 0 9 3 11 8 5 4 -5 16 -10 27 -10 11 0 23 5 27 10 5 6 8 5 8 -4 0 -11 3
-11 16 0 10 8 18 9 22 3 8 -11 68 -11 78 -1 4 3 15 2 25 -3 12 -7 19 -6 22 3
4 9 8 9 15 -2 6 -8 15 -10 23 -5 21 13 39 13 39 1 0 -7 5 -5 10 3 5 8 10 10
10 4 0 -13 42 -13 52 1 5 6 8 5 8 -4 0 -11 3 -11 15 -1 12 10 15 10 15 0 0
-10 3 -10 15 0 12 10 15 10 15 0 0 -10 3 -10 15 0 8 7 15 8 15 3 0 -12 53 -11
62 2 5 6 8 5 8 -4 0 -10 3 -11 14 -2 9 7 17 8 20 2 7 -10 25 -9 44 2 7 5 12 3
12 -4 0 -8 4 -8 15 1 12 10 15 10 15 -1 0 -12 2 -12 9 0 7 11 9 11 14 0 4 -12
7 -11 16 1 10 13 12 13 21 0 9 -13 10 -13 10 0 0 13 1 13 11 0 8 -11 12 -12
15 -3 4 8 13 9 30 3 17 -7 24 -6 24 3 0 8 4 7 10 -3 9 -13 10 -13 10 0 0 13 1
13 11 0 8 -11 12 -12 16 -3 3 8 11 10 21 5 21 -9 43 -9 60 1 7 5 12 3 12 -5 1
-8 6 -6 15 6 15 20 15 20 15 0 0 -16 2 -17 10 -4 5 8 10 10 10 4 0 -12 49 -12
68 0 7 4 12 2 12 -5 0 -8 4 -8 15 1 11 9 15 9 15 1 0 -9 5 -9 21 0 17 9 20 8
14 -2 -5 -8 -4 -10 4 -5 16 10 61 15 61 7 0 -3 30 -5 67 -5 94 2 95 3 88 17
-4 6 1 3 10 -8 14 -17 17 -18 25 -5 8 12 11 13 19 1 7 -11 9 -11 14 0 5 12 6
12 6 0 1 -10 4 -11 15 -2 10 8 16 9 21 1 3 -5 11 -10 16 -10 6 0 7 5 3 12 -4
6 -3 8 4 4 24 -15 71 -13 75 3 4 12 5 11 6 -4 1 -17 3 -18 11 -5 8 12 10 12
10 1 0 -11 3 -11 15 -1 12 10 15 10 15 0 0 -10 3 -10 15 0 12 10 15 10 15 0 0
-10 3 -10 15 0 12 10 15 10 15 0 0 -10 3 -10 15 0 12 10 15 10 15 0 0 -10 3
-10 14 -1 11 9 16 9 22 0 5 -9 10 -7 15 7 7 18 8 18 8 -1 1 -17 3 -17 11 -5 8
12 10 12 10 1 0 -10 3 -11 14 -2 9 8 22 8 38 2 15 -6 31 -5 42 1 14 8 17 7 12
-1 -10 -16 0 -14 18 5 15 14 16 14 16 -3 0 -15 2 -16 10 -3 8 12 10 12 10 1 0
-11 3 -11 16 0 13 10 17 10 25 -2 7 -12 9 -12 9 1 0 13 1 13 10 0 9 -13 11
-13 21 0 8 11 12 12 16 3 3 -9 10 -10 24 -3 14 8 19 7 19 -2 0 -9 3 -9 10 2 9
13 10 13 10 0 0 -13 1 -13 10 0 6 10 10 11 10 3 0 -7 5 -13 11 -13 5 0 8 4 5
8 -6 10 25 9 41 -1 7 -5 21 -4 31 2 11 6 24 6 36 -1 14 -8 17 -8 11 2 -6 9 -3
9 12 1 11 -6 23 -8 26 -5 11 11 42 11 49 0 5 -7 8 -6 8 4 0 13 1 13 10 0 9
-13 10 -13 10 0 0 11 2 12 8 3 10 -15 54 -5 46 11 -3 6 1 2 10 -8 13 -16 18
-17 31 -6 12 10 15 10 15 0 0 -10 3 -10 15 0 12 10 15 10 15 0 0 -10 3 -10 15
0 12 10 15 10 15 0 0 -10 3 -10 15 0 12 10 15 10 15 0 0 -9 4 -9 13 -2 6 5 22
8 34 6 13 -2 22 -1 21 4 -1 4 4 18 11 31 7 13 9 21 4 18 -6 -4 -10 10 -11 29
-1 25 2 33 11 28 7 -4 4 2 -6 13 -18 21 -18 22 0 32 16 9 16 10 1 11 -9 0 -19
4 -22 9 -4 5 4 7 16 4 23 -5 23 -5 3 12 -14 12 -15 15 -4 12 9 -3 16 1 16 9 0
7 -4 11 -8 9 -4 -3 -9 8 -11 25 -2 16 -1 27 3 25 4 -3 10 2 13 11 3 8 2 13 -3
10 -5 -3 -12 1 -15 10 -3 8 -2 13 3 10 5 -3 12 1 15 10 3 8 2 12 -4 9 -6 -3
-10 1 -10 10 0 10 5 14 13 10 6 -4 1 3 -12 14 -13 12 -18 21 -11 21 7 0 10 6
7 13 -3 8 -1 20 3 28 6 9 3 21 -8 33 -9 11 -11 16 -4 12 6 -4 12 -3 12 1 0 5
-6 15 -12 23 -7 8 -3 6 10 -5 17 -14 23 -16 20 -5 -2 8 -10 20 -18 27 -13 11
-13 12 3 13 9 0 17 5 17 11 0 5 -5 7 -11 3 -7 -4 -10 5 -9 27 3 52 1 61 -12
53 -7 -4 -8 -3 -4 5 4 6 11 9 16 6 4 -3 11 2 14 11 3 8 2 12 -4 9 -6 -3 -10 1
-10 10 0 9 5 13 11 9 6 -3 3 6 -7 22 -11 15 -14 25 -7 21 6 -4 14 -3 18 3 3 5
-1 10 -10 10 -9 0 -13 5 -10 11 9 14 11 147 2 155 -4 4 1 13 11 20 16 13 16
13 -1 14 -10 0 -15 5 -12 10 4 6 12 7 18 3 7 -3 3 3 -7 16 -16 17 -17 24 -7
34 10 9 11 8 5 -8 -4 -11 -4 -17 0 -13 4 3 9 18 10 32 3 21 1 24 -10 15 -19
-16 -18 -4 2 15 14 15 14 16 0 16 -9 0 -16 5 -16 11 0 6 7 9 15 5 13 -5 13 -3
0 18 -8 12 -12 25 -9 28 3 4 0 16 -6 28 -8 15 -8 20 -1 16 15 -10 14 7 -1 24
-7 8 -4 7 7 -2 20 -16 21 -16 21 2 0 10 -4 17 -7 14 -4 -2 -10 0 -14 6 -3 5
-2 10 3 10 6 0 13 7 16 16 5 12 1 14 -17 10 -12 -3 -16 -3 -9 0 6 3 12 15 12
25 0 11 4 18 8 15 14 -8 7 31 -9 50 -8 10 -9 15 -2 11 6 -4 14 -3 18 3 6 9 -8
14 -28 11 -5 -1 -5 3 -2 9 4 6 14 9 24 6 15 -6 15 -5 -1 7 -15 12 -15 14 0 24
16 11 16 12 -1 12 -10 1 -15 6 -12 11 4 6 12 7 18 3 7 -3 3 4 -8 17 -11 13
-15 20 -9 17 7 -4 14 -1 16 6 7 17 -2 38 -13 32 -5 -4 -6 1 -3 9 3 9 9 14 13
11 13 -7 5 33 -9 50 -7 9 -9 15 -4 14 23 -4 26 2 8 17 -15 13 -16 15 -2 10 12
-3 15 -1 11 9 -3 8 -9 13 -13 10 -5 -3 -12 0 -16 6 -5 8 -3 9 6 4 10 -6 12 -4
6 10 -5 14 -4 16 7 7 11 -9 13 -7 12 8 -1 11 -5 23 -10 27 -4 5 -5 3 -2 -3 3
-6 0 -11 -8 -11 -13 0 -13 3 0 17 20 22 19 31 -2 24 -14 -5 -15 -4 -4 4 7 5
11 14 7 20 -3 6 -1 14 5 18 8 5 9 3 4 -6 -5 -8 -4 -11 2 -7 14 9 10 42 -8 63
-8 10 -9 15 -2 11 6 -4 14 -3 18 3 6 9 -8 14 -28 11 -5 -1 -5 3 -2 9 4 6 14 9
24 6 15 -6 15 -5 -1 7 -15 12 -15 14 0 24 16 11 16 12 -1 12 -10 1 -15 6 -12
11 4 6 12 7 18 3 7 -3 3 3 -7 16 -16 17 -17 24 -7 34 10 9 11 8 6 -8 -5 -15
-4 -17 3 -6 12 16 4 44 -9 35 -5 -3 -6 2 -3 10 3 9 10 13 15 10 5 -3 6 2 3 10
-3 9 -10 13 -15 10 -5 -3 -6 2 -3 10 3 9 10 13 16 10 5 -3 4 3 -3 14 -7 12
-17 18 -23 15 -5 -3 -6 -1 -2 6 4 6 11 9 16 6 4 -3 11 2 14 11 3 8 2 12 -4 9
-6 -3 -10 1 -10 10 0 10 5 13 13 9 9 -6 8 -3 -1 8 -10 13 -11 22 -2 38 10 18
8 24 -7 37 -17 14 -17 14 2 9 19 -6 19 -5 2 8 -17 13 -17 14 0 21 16 7 15 9
-7 15 l-25 8 24 1 23 1 -23 21 -24 20 25 -12 25 -12 -20 23 c-11 13 -15 20 -8
17 6 -4 14 -3 18 3 3 5 -1 10 -10 10 -11 0 -14 4 -8 15 12 21 4 87 -10 78 -6
-3 -7 -1 -3 6 4 6 11 9 16 6 4 -3 11 2 14 11 9 23 7 31 -3 15 -6 -9 -10 -4
-13 18 -3 18 0 35 5 38 6 4 7 1 2 -7 -5 -8 -4 -11 3 -6 6 4 9 13 6 21 -4 8
-11 12 -17 8 -5 -3 -7 -1 -3 5 3 5 3 12 -1 15 -5 2 -3 3 4 1 19 -5 23 8 6 21
-13 9 -13 14 -3 20 9 6 11 4 5 -5 -5 -8 -4 -11 3 -6 14 8 4 36 -11 32 -7 -1
-9 -1 -4 1 4 3 4 10 1 15 -4 6 -2 8 4 4 6 -3 13 -2 17 4 3 5 -1 10 -9 10 -11
0 -13 6 -7 28 9 34 3 64 -11 56 -7 -5 -8 -2 -4 5 5 7 14 10 20 8 7 -3 13 1 13
9 0 7 -4 11 -9 8 -4 -3 -8 4 -8 16 0 13 4 19 11 14 6 -3 3 6 -7 22 -11 15 -14
25 -7 21 6 -4 14 -3 18 3 3 5 -1 10 -10 10 -9 0 -13 5 -10 10 4 6 12 7 18 3 7
-3 3 4 -8 17 -11 13 -15 20 -9 17 7 -4 15 0 18 9 4 11 2 15 -7 11 -15 -6 -17
27 -2 40 4 5 5 1 0 -7 -5 -8 -4 -12 0 -7 5 4 9 18 10 31 0 19 -4 23 -20 20
-18 -3 -17 -1 5 16 l25 20 -25 0 -25 1 23 11 c12 6 22 15 22 20 0 5 -4 7 -9 4
-5 -3 -8 47 -8 112 0 65 -3 124 -7 131 -4 6 -4 11 1 10 22 -4 23 3 2 22 l-24
20 25 -12 25 -12 -19 22 c-16 17 -17 24 -7 34 10 9 11 8 6 -8 -5 -15 -4 -17 3
-6 12 16 4 44 -9 35 -5 -3 -6 2 -3 10 3 9 9 14 13 11 17 -10 7 32 -13 55 -11
13 -14 19 -5 12 22 -17 33 -2 11 15 -16 13 -16 14 0 9 12 -3 15 -1 11 9 -3 8
-9 13 -13 10 -5 -3 -12 0 -16 6 -5 8 -3 9 6 4 10 -6 12 -4 6 10 -5 14 -4 15 7
7 10 -8 13 -7 13 8 0 13 -6 17 -21 14 -19 -3 -19 -2 -2 10 9 7 17 19 17 26 0
10 -4 9 -17 -1 -12 -10 -10 -4 5 18 15 20 19 34 12 38 -8 5 -7 11 1 21 7 9 8
14 3 13 -21 -4 -28 2 -14 11 13 8 12 11 -5 25 -14 11 -15 13 -4 9 10 -3 20 0
25 7 4 7 3 10 -3 6 -6 -4 -13 0 -17 8 -3 8 -2 14 2 14 21 -4 22 3 1 22 l-24
20 25 -12 25 -12 -19 22 c-16 17 -17 24 -7 34 10 9 11 8 5 -8 -4 -11 -4 -17 0
-13 4 3 9 18 10 32 3 21 1 24 -10 15 -19 -16 -18 -4 2 15 14 14 14 16 0 16
-10 0 -13 6 -10 15 4 8 10 12 16 9 5 -3 4 3 -3 14 -7 12 -17 18 -23 15 -5 -3
-6 -1 -2 6 4 6 11 9 16 6 5 -3 11 -1 14 4 3 5 -1 12 -10 15 -8 3 -13 10 -9 16
3 5 1 19 -5 30 -8 16 -8 18 4 14 18 -7 30 12 15 22 -8 5 -9 3 -4 -6 5 -9 4
-11 -3 -6 -8 5 -9 13 -3 24 6 11 5 24 -1 36 -7 12 -7 17 0 12 5 -3 13 1 16 10
3 8 2 12 -4 9 -6 -3 -10 1 -10 10 0 9 5 13 11 9 6 -3 3 6 -7 22 -11 15 -14 25
-8 21 7 -4 14 0 17 8 4 10 1 12 -10 8 -12 -5 -13 -2 -5 13 5 10 6 28 2 39 -9
25 -1 57 12 49 6 -4 2 6 -8 22 -11 15 -14 25 -8 21 7 -4 14 0 17 8 4 10 1 12
-11 8 -9 -3 -14 -3 -10 2 4 4 2 15 -5 24 -10 14 -10 14 4 3 14 -10 18 -10 23
3 3 9 2 14 -3 11 -10 -7 -19 22 -13 47 2 9 8 14 14 11 5 -4 2 6 -8 22 -11 15
-14 25 -8 21 12 -7 29 21 19 31 -3 3 -5 0 -5 -6 0 -7 -4 -12 -9 -12 -5 0 -7
12 -3 28 6 24 7 59 2 72 -6 16 -5 48 1 45 4 -3 10 2 13 11 3 8 2 13 -3 10 -5
-3 -12 1 -15 10 -3 8 -2 13 3 10 15 -9 22 25 9 41 -14 17 -18 52 -7 59 5 2 6
11 2 19 -3 9 0 22 6 29 9 11 9 16 0 22 -7 4 -9 3 -6 -3 3 -5 0 -10 -8 -10 -12
0 -12 3 -3 14 9 11 8 17 -3 25 -11 8 -11 9 3 5 9 -3 19 1 22 9 3 9 1 12 -4 9
-14 -8 -10 76 4 94 9 12 8 13 -5 9 -12 -5 -15 -1 -11 18 2 13 8 21 13 18 5 -3
4 7 -1 21 -6 15 -9 39 -8 54 1 14 -2 33 -7 40 -5 9 -4 12 2 8 18 -11 25 25 8
43 -8 9 -13 19 -11 21 8 9 16 60 9 56 -5 -3 -9 3 -9 14 0 13 5 18 15 14 10 -4
9 1 -4 15 -11 12 -15 21 -10 20 24 -5 27 1 9 16 -18 15 -18 15 0 10 16 -6 17
-4 6 9 -7 8 -17 12 -23 8 -6 -3 -7 -1 -3 6 4 6 12 9 17 6 5 -4 9 -2 9 4 0 5
-8 15 -17 21 -16 10 -15 11 5 6 23 -5 24 -4 5 16 -10 12 -12 18 -5 14 10 -6
11 -1 7 17 -4 14 -2 28 4 31 7 4 6 16 -1 37 -5 16 -8 39 -5 50 4 13 0 22 -10
26 -13 5 -11 8 8 16 21 9 21 11 6 14 -17 4 -17 5 -1 17 13 10 14 15 4 21 -9 6
-11 4 -5 -5 5 -8 4 -11 -3 -6 -6 4 -9 12 -7 19 10 26 11 97 1 97 -5 0 -1 7 10
16 10 8 14 13 8 10 -7 -3 -15 1 -18 10 -3 8 -2 13 2 10 4 -3 14 4 21 16 7 11
8 17 3 14 -5 -3 -17 3 -27 14 -16 18 -16 18 7 13 23 -5 23 -5 3 11 -11 10 -14
15 -7 11 6 -3 12 -1 12 4 0 6 -5 11 -10 11 -6 0 -3 11 5 24 12 18 13 26 4 32
-8 5 -10 3 -4 -7 5 -8 4 -11 0 -6 -5 4 -9 16 -10 27 -1 15 1 17 12 8 11 -8 12
-7 7 6 -3 9 -11 16 -17 16 -6 0 -2 7 9 16 10 8 14 13 9 10 -6 -2 -17 -1 -25 5
-13 7 -12 9 1 9 24 0 31 28 11 39 -16 9 -16 10 1 17 17 6 17 7 0 21 -10 8 -13
12 -7 9 16 -8 28 26 12 35 -6 4 -16 5 -22 2 -5 -4 -6 -1 -2 6 5 7 15 10 24 6
12 -4 12 -1 -4 16 -10 12 -13 19 -5 14 11 -6 13 -4 8 8 -4 10 -1 17 5 17 7 0
3 7 -8 16 -10 8 -14 13 -8 10 7 -3 15 1 18 10 3 8 2 12 -4 9 -6 -3 -10 5 -10
18 0 13 -6 24 -12 25 -7 0 -30 3 -50 5 -24 3 -36 1 -32 -5 4 -6 0 -7 -12 -1
-11 5 -30 8 -44 7 -14 -1 -31 3 -39 10 -12 8 -13 8 -7 -1 5 -9 1 -13 -13 -13
-10 0 -22 6 -24 13 -4 10 -6 10 -6 0 -1 -9 -17 -13 -47 -13 -33 0 -43 3 -39
13 4 6 0 4 -8 -6 -9 -10 -18 -14 -21 -9 -3 6 -15 8 -27 5 -12 -4 -25 0 -30 8
-6 10 -9 8 -9 -10 0 -24 0 -24 -15 -5 -12 15 -16 16 -24 5 -4 -7 -11 -9 -14
-4 -7 11 -59 9 -78 -2 -8 -5 -10 -4 -5 3 4 7 3 12 -3 12 -5 0 -12 -6 -14 -12
-4 -10 -6 -10 -6 -1 -1 7 -8 10 -16 7 -8 -4 -23 0 -32 7 -12 10 -15 10 -9 2 5
-9 -1 -13 -21 -13 -16 0 -35 6 -42 13 -10 10 -11 8 -5 -7 5 -14 4 -17 -5 -11
-20 12 -131 12 -132 0 0 -5 -4 -1 -9 10 -5 11 -9 14 -9 7 -1 -11 -17 -13 -71
-9 -43 2 -70 0 -70 -6 0 -6 -10 -2 -22 9 -12 10 -18 13 -13 5 6 -11 2 -13 -19
-7 -21 5 -26 4 -21 -6 4 -7 -1 -4 -9 6 -9 11 -16 14 -16 8 0 -7 -15 -12 -36
-12 -19 0 -33 4 -30 8 3 5 -1 9 -9 9 -8 0 -14 -3 -13 -6 2 -21 -4 -22 -18 -5
-8 10 -13 13 -9 6 5 -9 -6 -12 -42 -10 -26 1 -53 -1 -60 -5 -6 -4 -14 -3 -18
3 -4 7 -12 7 -25 0 -13 -7 -20 -6 -23 3 -4 9 -8 8 -16 -3 -9 -13 -11 -12 -12
5 0 11 -3 14 -6 8 -2 -7 -19 -13 -37 -13 -18 0 -38 6 -45 13 -10 10 -11 8 -5
-8 6 -16 5 -18 -7 -7 -16 15 -33 16 -23 0 4 -6 3 -8 -3 -5 -19 12 -103 15
-103 4 0 -5 -10 -2 -22 9 -12 10 -18 13 -14 7 5 -9 -2 -13 -24 -13 -17 0 -29
4 -26 8 3 5 -1 9 -9 9 -8 0 -12 -4 -9 -8 2 -4 0 -10 -6 -14 -5 -3 -10 -3 -10
2 0 4 -23 7 -52 6 -33 -2 -55 2 -60 10 -6 9 -8 9 -8 0 0 -7 -11 -13 -25 -13
-14 0 -25 6 -25 13 0 8 -3 8 -9 -2 -6 -10 -19 -12 -40 -8 -20 4 -30 3 -26 -3
4 -7 -3 -7 -19 0 -14 5 -26 7 -26 4 0 -4 -8 0 -17 7 -11 10 -14 10 -9 2 5 -9
1 -13 -11 -13 -11 0 -25 6 -32 13 -10 8 -12 8 -7 0 3 -6 2 -14 -4 -18 -5 -3
-10 -1 -10 5 0 6 -5 8 -11 4 -6 -3 -15 0 -20 7 -6 10 -9 11 -9 2 0 -7 -10 -13
-23 -13 -13 0 -29 6 -36 13 -10 10 -11 8 -5 -6 5 -15 3 -16 -20 -7 -14 5 -26
7 -26 4 0 -4 -8 0 -17 7 -11 10 -14 10 -9 2 5 -9 1 -13 -13 -13 -10 0 -22 6
-24 13 -4 10 -6 10 -6 0 -1 -7 -12 -13 -26 -13 -14 0 -25 6 -25 13 0 8 -3 8
-9 -2 -6 -10 -19 -12 -40 -8 -20 4 -30 3 -26 -3 4 -7 -3 -7 -19 0 -14 5 -26 7
-26 4 0 -4 -8 0 -17 7 -11 10 -14 10 -9 2 5 -9 1 -13 -11 -13 -11 0 -25 6 -32
13 -10 8 -12 8 -7 0 3 -6 2 -14 -4 -18 -5 -3 -10 -1 -10 5 0 6 -5 8 -11 4 -6
-3 -15 0 -20 7 -6 10 -9 11 -9 2 0 -7 -10 -13 -23 -13 -13 0 -29 6 -36 13 -10
10 -11 8 -5 -6 5 -15 3 -16 -20 -7 -14 5 -26 7 -26 4 0 -4 -8 0 -17 7 -11 10
-14 10 -9 2 5 -9 1 -13 -13 -13 -10 0 -22 6 -24 13 -4 10 -6 10 -6 0 -1 -7
-12 -13 -26 -13 -14 0 -25 6 -25 13 0 8 -3 8 -9 -2 -6 -10 -19 -12 -40 -8 -20
4 -30 3 -26 -3 4 -7 -3 -7 -19 0 -14 5 -26 7 -26 4 0 -4 -8 0 -17 7 -11 10
-14 10 -9 2 5 -9 1 -13 -11 -13 -11 0 -25 6 -32 13 -10 8 -12 8 -7 0 3 -6 2
-14 -4 -18 -5 -3 -10 -1 -10 5 0 6 -5 8 -11 4 -6 -3 -15 0 -20 7 -6 10 -9 11
-9 2 0 -7 -10 -13 -23 -13 -13 0 -29 6 -36 13 -10 10 -11 8 -5 -6 5 -15 3 -16
-20 -7 -14 5 -26 7 -26 4 0 -4 -8 0 -17 7 -11 10 -14 10 -9 2 5 -9 1 -13 -13
-13 -10 0 -22 6 -24 13 -4 10 -6 10 -6 0 -1 -7 -12 -13 -26 -13 -14 0 -25 6
-25 13 0 8 -3 8 -9 -2 -6 -10 -19 -12 -40 -8 -20 4 -30 3 -26 -3 4 -7 -3 -7
-19 0 -14 5 -26 7 -26 4 0 -4 -8 0 -17 7 -11 10 -14 10 -9 2 5 -9 1 -13 -11
-13 -11 0 -25 6 -32 13 -10 8 -12 8 -7 0 3 -6 2 -14 -4 -18 -5 -3 -10 -1 -10
5 0 6 -5 8 -11 4 -6 -3 -15 0 -20 7 -6 10 -9 11 -9 2 0 -7 -10 -13 -23 -13
-13 0 -29 6 -36 13 -10 10 -11 8 -5 -6 5 -15 3 -16 -20 -7 -14 5 -26 7 -26 4
0 -4 -8 0 -17 7 -11 10 -14 10 -9 2 5 -9 1 -13 -13 -13 -10 0 -22 6 -24 13 -4
10 -6 10 -6 0 -1 -7 -12 -13 -26 -13 -14 0 -25 6 -25 13 0 8 -3 8 -9 -2 -6
-10 -19 -12 -40 -8 -20 4 -30 3 -26 -3 4 -7 -3 -7 -19 0 -14 5 -26 7 -26 4 0
-4 -8 0 -17 7 -11 10 -14 10 -9 2 5 -9 1 -13 -11 -13 -11 0 -25 6 -32 13 -10
8 -12 8 -7 0 3 -6 2 -14 -4 -18 -5 -3 -10 -3 -10 2 0 4 -18 8 -40 9 -23 1 -37
-3 -33 -8 3 -6 -4 -5 -16 1 -11 7 -21 9 -21 5 0 -3 -8 0 -17 7 -13 11 -15 11
-9 1 6 -10 -6 -12 -58 -9 -61 4 -65 3 -54 -12 12 -14 11 -14 -4 -2 -21 16
-111 24 -101 8 3 -5 2 -7 -4 -4 -19 12 -103 15 -103 4 0 -5 -10 -2 -22 9 -12
10 -18 13 -14 6 5 -9 -1 -12 -23 -10 -17 1 -31 7 -31 12 0 5 -7 1 -15 -10 -8
-10 -15 -14 -15 -9 0 6 -16 10 -35 11 -21 0 -32 -4 -28 -10 3 -6 0 -5 -8 2
-16 15 -33 16 -23 0 4 -6 3 -8 -3 -5 -19 12 -103 15 -103 4 0 -5 -10 -2 -22 9
-12 10 -18 13 -14 6 5 -9 -1 -12 -23 -10 -17 1 -31 7 -31 12 0 5 -7 1 -15 -10
-8 -10 -15 -14 -15 -9 0 6 -16 10 -35 11 -21 0 -32 -4 -28 -10 3 -6 0 -5 -8 2
-16 15 -33 16 -23 0 4 -6 3 -8 -3 -5 -19 12 -103 15 -103 4 0 -5 -10 -2 -22 9
-12 10 -18 13 -14 6 5 -9 -1 -12 -23 -10 -17 1 -31 7 -31 12 0 5 -7 1 -15 -10
-8 -10 -15 -14 -15 -9 0 6 -16 10 -35 11 -21 0 -32 -4 -28 -10 3 -6 0 -5 -8 2
-16 15 -33 16 -23 0 4 -6 3 -8 -3 -5 -19 12 -103 15 -103 4 0 -5 -10 -2 -22 9
-12 10 -18 13 -14 6 5 -9 -1 -12 -23 -10 -17 1 -31 7 -31 12 0 5 -7 1 -15 -10
-8 -10 -15 -14 -15 -9 0 6 -16 10 -35 11 -22 0 -32 -3 -28 -10 5 -8 3 -8 -8 0
-8 6 -36 9 -64 8 -27 -1 -56 3 -64 10 -12 9 -12 7 -1 -14 l13 -25 -22 20 c-18
15 -24 16 -30 6 -5 -7 -11 -9 -14 -4 -3 5 -23 8 -44 7 -21 0 -44 4 -52 10 -12
9 -13 8 -7 -2 6 -11 1 -13 -20 -11 -16 2 -34 0 -41 -4 -6 -4 -14 -4 -16 0 -3
5 -36 8 -74 7 -37 -1 -74 4 -82 10 -11 8 -13 8 -7 -2 10 -16 -62 -14 -83 2
-12 9 -12 7 -1 -14 l13 -25 -23 20 c-16 14 -24 16 -27 7 -3 -6 -10 -9 -16 -5
-6 3 -27 6 -46 6 -20 0 -42 5 -50 11 -12 8 -13 8 -7 -2 6 -10 -2 -12 -31 -11
-21 1 -44 7 -51 12 -9 7 -11 5 -5 -9 6 -17 5 -18 -11 -5 -14 12 -19 12 -26 2
-5 -8 -10 -9 -14 -3 -3 6 -15 8 -26 5 -11 -3 -27 0 -35 7 -13 11 -14 10 -9 -5
6 -14 4 -16 -6 -10 -8 5 -60 8 -117 8 -76 -1 -101 2 -96 10 3 7 -4 3 -17 -8
-13 -11 -20 -15 -17 -9 4 7 0 15 -9 18 -9 3 -12 2 -9 -4 4 -7 -14 -9 -54 -7
-39 2 -61 0 -61 -7 0 -6 -5 -4 -11 4 -8 11 -12 12 -16 2 -2 -6 -10 -9 -16 -5
-22 14 -132 9 -145 -7 -10 -13 -11 -13 -6 1 3 10 0 20 -7 25 -8 4 -10 3 -5 -4
10 -17 -66 -16 -83 1 -7 6 -12 8 -11 2 5 -22 -1 -29 -10 -15 -8 12 -11 13 -19
1 -5 -8 -11 -9 -15 -3 -3 6 -15 8 -27 5 -12 -3 -24 0 -29 6 -5 9 -9 8 -14 -5z
m7454 -1176 c0 -6 -6 -5 -15 2 -8 7 -15 14 -15 16 0 2 7 1 15 -2 8 -4 15 -11
15 -16z m-7525 -258 c-3 -5 -12 -10 -18 -10 -7 0 -6 4 3 10 19 12 23 12 15 0z
m-5 -60 c0 -5 -5 -10 -11 -10 -5 0 -7 5 -4 10 3 6 8 10 11 10 2 0 4 -4 4 -10z
m7530 -162 c0 -6 -6 -5 -15 2 -8 7 -15 14 -15 16 0 2 7 1 15 -2 8 -4 15 -11
15 -16z m-7526 -76 c3 -5 -1 -9 -9 -9 -8 0 -12 4 -9 9 3 4 7 8 9 8 2 0 6 -4 9
-8z m-8 -137 c-1 -8 -5 -17 -8 -21 -5 -4 -4 16 1 34 3 9 9 -1 7 -13z m9 -185
c-3 -5 -12 -10 -18 -10 -7 0 -6 4 3 10 19 12 23 12 15 0z m0 -80 c3 -6 -1 -7
-9 -4 -18 7 -21 14 -7 14 6 0 13 -4 16 -10z m-8 -145 c0 -8 -4 -12 -9 -9 -5 3
-6 10 -3 15 9 13 12 11 12 -6z m8 -175 c3 -6 -1 -7 -9 -4 -18 7 -21 14 -7 14
6 0 13 -4 16 -10z m7522 -306 c-3 -3 -12 -4 -19 -1 -8 3 -5 6 6 6 11 1 17 -2
13 -5z m-7523 -32 c3 -5 -1 -9 -9 -9 -8 0 -12 4 -9 9 3 4 7 8 9 8 2 0 6 -4 9
-8z m-4 -142 c0 -5 -4 -10 -10 -10 -5 0 -10 5 -10 10 0 6 5 10 10 10 6 0 10
-4 10 -10z m-7 -35 c-3 -9 -8 -14 -10 -11 -3 3 -2 9 2 15 9 16 15 13 8 -4z
m7537 -5 c0 -5 -4 -10 -10 -10 -5 0 -10 5 -10 10 0 6 5 10 10 10 6 0 10 -4 10
-10z m-7526 -398 c3 -5 -1 -9 -9 -9 -8 0 -12 4 -9 9 3 4 7 8 9 8 2 0 6 -4 9
-8z m-7 -447 c0 -8 -4 -12 -9 -9 -4 3 -8 9 -8 15 0 5 4 9 8 9 5 0 9 -7 9 -15z
m8 -335 c-3 -5 -12 -10 -18 -10 -7 0 -6 4 3 10 19 12 23 12 15 0z m7520 -110
c-3 -5 -12 -10 -18 -10 -7 0 -6 4 3 10 19 12 23 12 15 0z m5 -384 c0 -2 -7 -9
-15 -16 -13 -11 -14 -10 -9 4 5 14 24 23 24 12z m0 -240 c0 -3 -4 -8 -10 -11
-5 -3 -10 -1 -10 4 0 6 5 11 10 11 6 0 10 -2 10 -4z m0 -240 c0 -3 -4 -8 -10
-11 -5 -3 -10 -1 -10 4 0 6 5 11 10 11 6 0 10 -2 10 -4z m-7526 -64 c3 -5 -1
-9 -9 -9 -8 0 -12 4 -9 9 3 4 7 8 9 8 2 0 6 -4 9 -8z m-7 -247 c0 -8 -4 -12
-9 -9 -5 3 -6 10 -3 15 9 13 12 11 12 -6z m3 -195 c0 -5 -5 -10 -11 -10 -5 0
-7 5 -4 10 3 6 8 10 11 10 2 0 4 -4 4 -10z"/>
<path d="M5817 12643 c3 -7 6 -13 8 -13 2 0 5 6 8 13 3 8 -1 14 -8 14 -7 0
-11 -6 -8 -14z"/>
<path d="M5810 11862 c0 -5 7 -9 15 -9 8 0 12 4 9 9 -3 4 -9 8 -15 8 -5 0 -9
-4 -9 -8z"/>
<path d="M13375 10631 c-3 -5 -2 -12 3 -15 5 -3 9 1 9 9 0 17 -3 19 -12 6z"/>
<path d="M13387 8679 c7 -7 15 -10 18 -7 3 3 -2 9 -12 12 -14 6 -15 5 -6 -5z"/>
<path d="M5822 8671 c-11 -7 -11 -9 0 -14 9 -3 15 1 15 9 0 8 -1 14 -1 14 -1
0 -7 -4 -14 -9z"/>
<path d="M5820 8299 c0 -5 5 -7 10 -4 6 3 10 8 10 11 0 2 -4 4 -10 4 -5 0 -10
-5 -10 -11z"/>
<path d="M5816 8002 c-3 -5 1 -9 9 -9 8 0 15 4 15 9 0 4 -4 8 -9 8 -6 0 -12
-4 -15 -8z"/>
<path d="M13370 7441 c0 -6 4 -13 10 -16 6 -3 7 1 4 9 -7 18 -14 21 -14 7z"/>
<path d="M13375 7400 c3 -5 8 -10 11 -10 2 0 4 5 4 10 0 6 -5 10 -11 10 -5 0
-7 -4 -4 -10z"/>
<path d="M13375 6721 c-3 -5 -2 -12 3 -15 5 -3 9 1 9 9 0 17 -3 19 -12 6z"/>
<path d="M5822 6511 c-11 -7 -11 -9 0 -14 9 -3 15 1 15 9 0 8 -1 14 -1 14 -1
0 -7 -4 -14 -9z"/>
<path d="M5818 6373 c7 -3 16 -2 19 1 4 3 -2 6 -13 5 -11 0 -14 -3 -6 -6z"/>
</g>
</svg>
