<?xml version="1.0" standalone="no"?>
<!DOCTYPE svg PUBLIC "-//W3C//DTD SVG 20010904//EN"
 "http://www.w3.org/TR/2001/REC-SVG-20010904/DTD/svg10.dtd">
<svg version="1.0" xmlns="http://www.w3.org/2000/svg"
 width="500.000000pt" height="500.000000pt" viewBox="0 0 500.000000 500.000000"
 preserveAspectRatio="xMidYMid meet">
<metadata>
Created by potrace 1.14, written by Peter Selinger 2001-2017
</metadata>
<g transform="translate(0.000000,500.000000) scale(0.100000,-0.100000)"
fill="#000000" stroke="none">
<path d="M2400 4018 c-106 -8 -223 -26 -257 -39 -28 -10 -31 -33 -4 -24 20 6
38 10 101 21 19 4 44 9 55 11 11 3 88 6 170 8 273 6 486 -44 725 -168 188 -97
336 -220 474 -392 118 -147 190 -280 251 -462 20 -62 41 -113 46 -113 14 0 11
21 -15 96 -56 165 -139 332 -215 434 -14 19 -33 44 -41 55 -49 66 -256 258
-339 314 -231 154 -483 241 -739 257 -53 3 -101 7 -107 8 -5 1 -53 -2 -105 -6z"/>
<path d="M2350 3484 c-408 -53 -764 -372 -869 -779 -22 -85 -24 -104 -27 -240
-3 -127 3 -186 30 -300 33 -139 141 -331 251 -446 139 -145 356 -270 530 -305
11 -2 43 -8 70 -13 48 -10 319 -8 360 2 77 19 117 31 163 48 322 118 560 372
658 704 36 121 45 358 19 486 -56 280 -208 511 -440 670 -221 153 -464 209
-745 173z"/>
<path d="M1030 2115 c0 -37 41 -148 104 -279 186 -390 540 -685 957 -800 116
-31 164 -40 274 -51 55 -6 245 -6 272 -1 12 3 48 7 80 11 78 8 156 29 161 43
5 15 2 15 -83 -2 -110 -23 -200 -30 -345 -29 -118 1 -165 7 -310 37 -101 22
-309 109 -423 178 -125 76 -266 198 -369 319 -117 138 -238 366 -289 547 -12
41 -29 57 -29 27z"/>
</g>
</svg>
